<svg width="205" height="260" viewBox="0 0 205 260" fill="none" xmlns="http://www.w3.org/2000/svg">
<rect x="0.542236" y="0.5" width="203" height="259" rx="3.5" fill="black" stroke="white"/>
<path d="M88.9131 182.824L95.207 195.771L110.725 205.506L111.158 205.777L110.881 206.203L76.0156 260H4C1.79086 260 2.01338e-09 258.209 0 256V255.938L88.1436 182.653L88.6318 182.247L88.9131 182.824ZM115.284 210.917L115.137 211.479L106.16 245.622L104.636 260H82.8965L88.3818 252.599L111.271 210.77L111.432 210.478L115.284 210.917Z" fill="#FAFAFA"/>
<mask id="path-3-inside-1_157_134" fill="white">
<path d="M93.148 47.8025C91.8334 48.0783 90.5162 48.36 89.1963 48.6478C82.8435 50.0336 76.4183 51.5787 69.954 53.2102L73.6024 61.0756C80.2244 58.8612 87.5417 56.7033 94.9193 54.8311C98.9163 53.8169 102.904 52.8809 106.794 52.0728C118.463 49.6476 129.247 48.3708 136.738 49.576L139.941 50.0922L139.235 53.2583C134.08 76.4016 136.187 97.2191 141.956 116.855C137.651 93.0096 143.003 69.8425 150.168 40.0784C131.957 40.9069 112.865 43.6656 93.1479 47.8022L93.148 47.8025ZM105.206 58.6997C102.304 59.3211 99.3575 60.0111 96.4229 60.7557C82.696 64.239 69.2504 68.8046 60.6587 72.5837C74.6721 89.0671 86.7763 106.003 95.9029 123.082C96.5507 122.922 97.2048 122.787 97.8636 122.68C99.212 122.461 100.571 122.36 101.92 122.367C92.9406 106.435 83.5017 91.9889 72.5895 77.8816L70.1239 74.6942L73.8586 73.1795C83.2401 69.3737 93.1609 66.5592 102.738 64.5134C103.377 64.3772 104.014 64.2441 104.649 64.1142C110.746 62.8694 116.678 61.9333 122.213 61.2482L125.953 60.7857L125.634 64.5402C123.785 86.3112 127.251 108.529 135.219 128.672C135.289 128.713 135.359 128.755 135.428 128.797C136.6 128.083 137.688 127.378 138.689 126.659C131.174 104.861 127.463 81.5098 132.582 55.3212C126.558 55.084 117.686 56.1807 108.091 58.1021C107.128 58.2951 106.167 58.4941 105.206 58.6997ZM153.869 50.8852C148.231 74.8505 144.65 93.8556 147.471 112.946C149.394 89.3407 158.015 66.7088 169.948 50.8048C164.589 50.6207 159.226 50.6475 153.869 50.8852ZM57.2185 77.9328C51.2619 80.5463 45.5233 83.4751 40.1167 86.9839C43.5114 88.8571 49.6762 92.374 57.2699 97.176C59.5271 93.5824 61.8495 90.0123 64.3555 86.682C62.0221 83.7287 59.6428 80.8119 57.2185 77.9328ZM104.917 70.3574C100.389 71.3003 95.7864 72.4174 91.208 73.7304C91.6896 78.3784 89.9088 83.2028 87.5905 88.0681C95.2988 99.0872 102.361 110.503 109.145 122.775C115.631 123.274 122.123 124.114 127.557 125.621C122.733 111.907 119.9 97.4049 119.245 82.7717C114.023 79.2639 110.747 74.8306 109.417 69.4717C107.914 69.7507 106.414 70.0459 104.917 70.3574ZM167.281 66.4264C161.143 77.9093 156.505 91.6407 154.401 105.949C160.709 91.1376 169.701 78.7161 180.04 69.0914C175.8 68.1412 171.547 67.2528 167.281 66.4264ZM68.2459 91.7013C64.3331 97.1151 60.6652 103.394 56.7459 109.466C68.8292 113.552 79.5731 119.152 88.8477 126.113C89.273 125.839 89.7068 125.582 90.1462 125.339C84.1028 114.094 76.7081 102.846 68.2459 91.7013ZM154.596 116.602C150.551 124.335 146.165 128.899 139.695 133.173C141.143 136.065 140.713 139.832 138.572 143.1C137.312 145.022 135.69 147.252 133.006 149.05C133.483 149.21 133.965 149.353 134.452 149.48C138.995 150.653 146.109 148.445 152.195 143.942C158.262 139.454 163.138 132.896 164.222 127.074C164.696 123.831 163.566 122.433 161.124 120.55C159.385 119.211 157.004 117.995 154.596 116.602L154.596 116.602ZM98.1502 128.844C94.5846 129.571 91.1895 131.368 88.682 134.253C85.1158 138.355 83.0567 144.753 85.0923 154.44L85.1065 154.507L85.1174 154.574C88.4955 175.166 92.0027 184.252 96.0652 188.72C99.651 192.665 104.477 193.89 111.709 196.493C111.843 195.629 111.95 194.579 111.983 193.275C112.067 189.959 111.768 185.493 111.143 180.616C109.892 170.862 107.321 159.378 104.228 151.38L102.593 147.149L107.128 147.222C118.143 147.398 124.21 146.402 127.566 145.043C130.923 143.683 131.845 142.213 133.459 139.75C134.976 137.436 134.794 136.759 134.158 135.774C133.522 134.789 131.511 133.372 128.377 132.273C122.108 130.077 112.014 128.954 102.705 128.496C101.178 128.422 99.6479 128.539 98.1502 128.844ZM165.871 138.504C163.237 142.453 159.712 145.985 155.83 148.856C149.537 153.512 142.181 156.596 135.372 155.842C133.305 157.157 132.205 158.395 131.717 159.33C131.047 160.614 131.161 161.428 131.712 162.512C132.263 163.596 133.466 164.766 134.802 165.507C136.139 166.248 137.587 166.473 138.101 166.388C153.8 163.812 159.575 157.917 166.851 150.957C168.973 148.927 169.257 145.672 168.372 142.67C167.929 141.169 167.179 139.83 166.474 139.036C166.297 138.833 166.095 138.654 165.871 138.504ZM111.322 153.297C114.003 161.429 116.09 171.139 117.205 179.839C117.859 184.933 118.189 189.622 118.094 193.429C118.052 195.086 117.935 196.572 117.695 197.909L165.959 185.371C164.973 183.446 163.975 181.515 162.977 179.582C161.238 180.605 159.429 181.504 157.565 182.273L157.631 182.512L154.906 183.273C153.248 183.84 151.502 184.33 149.668 184.735L122.185 192.406L122.191 188.374C122.209 175.521 120.144 164.647 115.991 153.156C114.436 153.233 112.879 153.28 111.321 153.297L111.322 153.297ZM122.272 152.588C125.845 162.914 127.846 173.069 128.216 184.376L134.53 182.614C133.21 181.348 132.165 179.824 131.457 178.138C130.539 175.945 130.236 173.351 131.282 170.929C131.329 170.821 131.381 170.717 131.433 170.612C129.347 169.374 127.451 167.62 126.263 165.282C124.998 162.793 124.748 159.47 126.299 156.5C126.811 155.519 127.486 154.589 128.321 153.702C127.307 153.196 126.391 152.626 125.572 152.003C124.556 152.227 123.458 152.421 122.272 152.588ZM169.293 157.068C162.512 163.463 154.725 169.854 139.091 172.421C138.581 172.504 138.064 172.542 137.547 172.536C137.177 172.807 137.008 173.087 136.894 173.352C136.67 173.87 136.654 174.722 137.096 175.779C137.98 177.891 140.579 179.858 142.568 179.67C156.654 178.337 165.192 171.815 169.842 165.354C171.985 162.377 171.679 160.83 170.93 159.236C170.555 158.44 169.95 157.72 169.293 157.068ZM170.549 173.836C169.749 174.611 168.917 175.351 168.054 176.055C169.031 177.948 170.009 179.841 170.98 181.735L177.343 179.138C175.325 178.045 173.666 176.813 172.272 175.533C171.649 174.961 171.087 174.396 170.549 173.836Z"/>
</mask>
<path d="M93.148 47.8025C91.8334 48.0783 90.5162 48.36 89.1963 48.6478C82.8435 50.0336 76.4183 51.5787 69.954 53.2102L73.6024 61.0756C80.2244 58.8612 87.5417 56.7033 94.9193 54.8311C98.9163 53.8169 102.904 52.8809 106.794 52.0728C118.463 49.6476 129.247 48.3708 136.738 49.576L139.941 50.0922L139.235 53.2583C134.08 76.4016 136.187 97.2191 141.956 116.855C137.651 93.0096 143.003 69.8425 150.168 40.0784C131.957 40.9069 112.865 43.6656 93.1479 47.8022L93.148 47.8025ZM105.206 58.6997C102.304 59.3211 99.3575 60.0111 96.4229 60.7557C82.696 64.239 69.2504 68.8046 60.6587 72.5837C74.6721 89.0671 86.7763 106.003 95.9029 123.082C96.5507 122.922 97.2048 122.787 97.8636 122.68C99.212 122.461 100.571 122.36 101.92 122.367C92.9406 106.435 83.5017 91.9889 72.5895 77.8816L70.1239 74.6942L73.8586 73.1795C83.2401 69.3737 93.1609 66.5592 102.738 64.5134C103.377 64.3772 104.014 64.2441 104.649 64.1142C110.746 62.8694 116.678 61.9333 122.213 61.2482L125.953 60.7857L125.634 64.5402C123.785 86.3112 127.251 108.529 135.219 128.672C135.289 128.713 135.359 128.755 135.428 128.797C136.6 128.083 137.688 127.378 138.689 126.659C131.174 104.861 127.463 81.5098 132.582 55.3212C126.558 55.084 117.686 56.1807 108.091 58.1021C107.128 58.2951 106.167 58.4941 105.206 58.6997ZM153.869 50.8852C148.231 74.8505 144.65 93.8556 147.471 112.946C149.394 89.3407 158.015 66.7088 169.948 50.8048C164.589 50.6207 159.226 50.6475 153.869 50.8852ZM57.2185 77.9328C51.2619 80.5463 45.5233 83.4751 40.1167 86.9839C43.5114 88.8571 49.6762 92.374 57.2699 97.176C59.5271 93.5824 61.8495 90.0123 64.3555 86.682C62.0221 83.7287 59.6428 80.8119 57.2185 77.9328ZM104.917 70.3574C100.389 71.3003 95.7864 72.4174 91.208 73.7304C91.6896 78.3784 89.9088 83.2028 87.5905 88.0681C95.2988 99.0872 102.361 110.503 109.145 122.775C115.631 123.274 122.123 124.114 127.557 125.621C122.733 111.907 119.9 97.4049 119.245 82.7717C114.023 79.2639 110.747 74.8306 109.417 69.4717C107.914 69.7507 106.414 70.0459 104.917 70.3574ZM167.281 66.4264C161.143 77.9093 156.505 91.6407 154.401 105.949C160.709 91.1376 169.701 78.7161 180.04 69.0914C175.8 68.1412 171.547 67.2528 167.281 66.4264ZM68.2459 91.7013C64.3331 97.1151 60.6652 103.394 56.7459 109.466C68.8292 113.552 79.5731 119.152 88.8477 126.113C89.273 125.839 89.7068 125.582 90.1462 125.339C84.1028 114.094 76.7081 102.846 68.2459 91.7013ZM154.596 116.602C150.551 124.335 146.165 128.899 139.695 133.173C141.143 136.065 140.713 139.832 138.572 143.1C137.312 145.022 135.69 147.252 133.006 149.05C133.483 149.21 133.965 149.353 134.452 149.48C138.995 150.653 146.109 148.445 152.195 143.942C158.262 139.454 163.138 132.896 164.222 127.074C164.696 123.831 163.566 122.433 161.124 120.55C159.385 119.211 157.004 117.995 154.596 116.602L154.596 116.602ZM98.1502 128.844C94.5846 129.571 91.1895 131.368 88.682 134.253C85.1158 138.355 83.0567 144.753 85.0923 154.44L85.1065 154.507L85.1174 154.574C88.4955 175.166 92.0027 184.252 96.0652 188.72C99.651 192.665 104.477 193.89 111.709 196.493C111.843 195.629 111.95 194.579 111.983 193.275C112.067 189.959 111.768 185.493 111.143 180.616C109.892 170.862 107.321 159.378 104.228 151.38L102.593 147.149L107.128 147.222C118.143 147.398 124.21 146.402 127.566 145.043C130.923 143.683 131.845 142.213 133.459 139.75C134.976 137.436 134.794 136.759 134.158 135.774C133.522 134.789 131.511 133.372 128.377 132.273C122.108 130.077 112.014 128.954 102.705 128.496C101.178 128.422 99.6479 128.539 98.1502 128.844ZM165.871 138.504C163.237 142.453 159.712 145.985 155.83 148.856C149.537 153.512 142.181 156.596 135.372 155.842C133.305 157.157 132.205 158.395 131.717 159.33C131.047 160.614 131.161 161.428 131.712 162.512C132.263 163.596 133.466 164.766 134.802 165.507C136.139 166.248 137.587 166.473 138.101 166.388C153.8 163.812 159.575 157.917 166.851 150.957C168.973 148.927 169.257 145.672 168.372 142.67C167.929 141.169 167.179 139.83 166.474 139.036C166.297 138.833 166.095 138.654 165.871 138.504ZM111.322 153.297C114.003 161.429 116.09 171.139 117.205 179.839C117.859 184.933 118.189 189.622 118.094 193.429C118.052 195.086 117.935 196.572 117.695 197.909L165.959 185.371C164.973 183.446 163.975 181.515 162.977 179.582C161.238 180.605 159.429 181.504 157.565 182.273L157.631 182.512L154.906 183.273C153.248 183.84 151.502 184.33 149.668 184.735L122.185 192.406L122.191 188.374C122.209 175.521 120.144 164.647 115.991 153.156C114.436 153.233 112.879 153.28 111.321 153.297L111.322 153.297ZM122.272 152.588C125.845 162.914 127.846 173.069 128.216 184.376L134.53 182.614C133.21 181.348 132.165 179.824 131.457 178.138C130.539 175.945 130.236 173.351 131.282 170.929C131.329 170.821 131.381 170.717 131.433 170.612C129.347 169.374 127.451 167.62 126.263 165.282C124.998 162.793 124.748 159.47 126.299 156.5C126.811 155.519 127.486 154.589 128.321 153.702C127.307 153.196 126.391 152.626 125.572 152.003C124.556 152.227 123.458 152.421 122.272 152.588ZM169.293 157.068C162.512 163.463 154.725 169.854 139.091 172.421C138.581 172.504 138.064 172.542 137.547 172.536C137.177 172.807 137.008 173.087 136.894 173.352C136.67 173.87 136.654 174.722 137.096 175.779C137.98 177.891 140.579 179.858 142.568 179.67C156.654 178.337 165.192 171.815 169.842 165.354C171.985 162.377 171.679 160.83 170.93 159.236C170.555 158.44 169.95 157.72 169.293 157.068ZM170.549 173.836C169.749 174.611 168.917 175.351 168.054 176.055C169.031 177.948 170.009 179.841 170.98 181.735L177.343 179.138C175.325 178.045 173.666 176.813 172.272 175.533C171.649 174.961 171.087 174.396 170.549 173.836Z" fill="#FAFAFA" stroke="black" stroke-width="2" mask="url(#path-3-inside-1_157_134)"/>
</svg>
