<svg width="205" height="260" viewBox="0 0 205 260" fill="none" xmlns="http://www.w3.org/2000/svg">
<rect x="0.542236" y="0.5" width="203" height="259" rx="3.5" fill="black" stroke="white"/>
<path d="M133.349 71.1182C148.827 71.1182 161.374 83.6656 161.374 99.1436C161.374 114.622 148.827 127.169 133.349 127.169C131.241 127.169 129.189 126.934 127.215 126.493L103.812 180.46L102.242 184.079L98.3281 183.583L50.9453 177.565L5.71973 260H4C1.79086 260 2.01336e-09 258.209 0 256V248.574L43.4521 169.375L45.1729 166.238L48.7217 166.689L95.7393 172.659L117.574 122.31C110.179 117.264 105.323 108.771 105.323 99.1436C105.323 83.6656 117.871 71.1182 133.349 71.1182Z" fill="#FAFAFA"/>
<path d="M68.2701 108.149L120.346 131.138L166.898 144.011L160.586 47L68.2701 108.149Z" fill="#FAFAFA"/>
<path d="M7.04224 220H199.042" stroke="#FAFAFA" stroke-width="5" stroke-dasharray="20 20"/>
</svg>
