<svg width="204" height="260" viewBox="0 0 204 260" fill="none" xmlns="http://www.w3.org/2000/svg">
<rect x="0.5" y="0.5" width="203" height="259" rx="3.5" fill="black" stroke="white"/>
<path d="M165.587 133.013C165.608 132.759 165.57 132.503 165.475 132.265C165.38 132.028 165.231 131.816 165.04 131.647L160.667 127C160.381 126.817 160.049 126.72 159.71 126.72C159.371 126.72 159.039 126.817 158.753 127C152.914 129.457 146.639 130.712 140.303 130.69C135.241 130.71 130.209 129.902 125.407 128.298C124.998 128.161 124.553 128.183 124.16 128.361C123.767 128.538 123.456 128.858 123.288 129.255C121.507 133.272 119.21 137.039 116.455 140.462C116.353 140.699 116.301 140.955 116.301 141.213C116.301 141.472 116.353 141.727 116.455 141.965C116.92 143.64 117.49 145.283 118.163 146.885C118.352 147.296 118.696 147.616 119.12 147.773C135.793 153.923 157.455 164.105 157.455 195.607V205.857C157.483 206.357 157.483 206.859 157.455 207.36C157.421 207.604 157.44 207.852 157.51 208.088C157.581 208.324 157.702 208.542 157.865 208.727C158.208 209.073 158.675 209.27 159.163 209.273H184.583C185.489 209.273 186.359 208.913 186.999 208.273C187.64 207.632 188 206.763 188 205.857V200.048C188 178.865 173.24 173.603 160.188 168.957L156.84 167.727C156.416 167.569 156.072 167.249 155.883 166.838C155.676 166.401 155.516 165.943 155.405 165.472C154.794 162.68 154.794 159.79 155.405 156.998C161.571 150.487 165.186 141.972 165.587 133.013Z" fill="#FAFAFA"/>
<path d="M92.3333 82.5834C92.3334 77.8118 93.0474 73.067 94.4517 68.5067C94.6266 68.068 94.6266 67.5788 94.4517 67.1401C94.1747 66.7369 93.7627 66.446 93.29 66.3201C90.7315 65.7605 88.119 65.4855 85.5 65.5001C69.305 65.5001 53.0417 76.1601 53.0417 99.6667C53.0417 128.093 64.59 134.927 65.9567 137.797C67.3269 142.021 67.4691 146.547 66.3667 150.848C65.8883 152.625 65.205 153.377 64.7267 153.582L59.5333 155.427C42.86 161.577 24 168 24 195.333V205.583C24 206.49 24.36 207.359 25.0007 207.999C25.6415 208.64 26.5105 209 27.4167 209H143.583C144.489 209 145.359 208.64 145.999 207.999C146.64 207.359 147 206.49 147 205.583V195.333C147 168.342 128.072 161.645 111.33 155.632L106 153.855C105.522 153.855 104.838 152.898 104.36 151.122C103.168 146.853 103.168 142.339 104.36 138.07C108.154 134.072 111.229 129.449 113.448 124.403C113.588 124.031 113.603 123.624 113.492 123.242C113.381 122.861 113.15 122.525 112.833 122.285C106.443 117.836 101.235 111.894 97.6628 104.975C94.0902 98.0562 92.2608 90.3698 92.3333 82.5834Z" fill="#FAFAFA"/>
<path d="M160.667 114.29C160.973 114.063 161.344 113.94 161.726 113.94C162.107 113.94 162.479 114.063 162.785 114.29L176.452 127.957C177.087 128.597 177.843 129.105 178.675 129.452C179.508 129.799 180.401 129.978 181.303 129.978C182.205 129.978 183.099 129.799 183.931 129.452C184.764 129.105 185.52 128.597 186.155 127.957C186.795 127.321 187.304 126.566 187.651 125.733C187.998 124.9 188.176 124.007 188.176 123.105C188.176 122.203 187.998 121.31 187.651 120.477C187.304 119.644 186.795 118.889 186.155 118.253L172.488 104.587C172.261 104.28 172.138 103.909 172.138 103.527C172.138 103.146 172.261 102.775 172.488 102.468C177.405 94.6456 179.267 85.2859 177.721 76.1769C176.174 67.0679 171.325 58.8478 164.102 53.0868C156.879 47.3257 147.786 44.4273 138.561 44.9451C129.337 45.4629 120.626 49.3607 114.092 55.8939C107.559 62.4272 103.661 71.1381 103.143 80.363C102.626 89.588 105.524 98.6804 111.285 105.904C117.046 113.127 125.266 117.975 134.375 119.522C143.484 121.069 152.844 119.206 160.667 114.29ZM116.25 82.5833C116.25 77.853 117.653 73.229 120.281 69.2959C122.909 65.3628 126.644 62.2974 131.014 60.4872C135.384 58.677 140.193 58.2033 144.833 59.1262C149.472 60.049 153.734 62.3268 157.078 65.6716C160.423 69.0165 162.701 73.278 163.624 77.9174C164.547 82.5567 164.073 87.3656 162.263 91.7358C160.453 96.106 157.387 99.8413 153.454 102.469C149.521 105.097 144.897 106.5 140.167 106.5C133.824 106.5 127.74 103.98 123.255 99.4949C118.77 95.0097 116.25 88.9264 116.25 82.5833Z" fill="#FAFAFA"/>
</svg>
