<svg width="204" height="260" viewBox="0 0 204 260" fill="none" xmlns="http://www.w3.org/2000/svg">
<g clip-path="url(#paint0_angular_136_51_clip_path)" data-figma-skip-parse="true"><g transform="matrix(0 0.13 -0.102 0 102 130)"><foreignObject x="-1009.8" y="-1009.8" width="2019.61" height="2019.61"><div xmlns="http://www.w3.org/1999/xhtml" style="background:conic-gradient(from 90deg,rgba(14, 48, 85, 1) 0deg,rgba(31, 106, 187, 1) 45deg,rgba(14, 48, 85, 1) 360deg);height:100%;width:100%;opacity:1"></div></foreignObject></g></g><rect width="204" height="260" data-figma-gradient-fill="{&#34;type&#34;:&#34;GRADIENT_ANGULAR&#34;,&#34;stops&#34;:[{&#34;color&#34;:{&#34;r&#34;:0.12156862765550613,&#34;g&#34;:0.41568627953529358,&#34;b&#34;:0.73333334922790527,&#34;a&#34;:1.0},&#34;position&#34;:0.1250},{&#34;color&#34;:{&#34;r&#34;:0.055258467793464661,&#34;g&#34;:0.18894831836223602,&#34;b&#34;:0.33333334326744080,&#34;a&#34;:1.0},&#34;position&#34;:1.0}],&#34;stopsVar&#34;:[{&#34;color&#34;:{&#34;r&#34;:0.12156862765550613,&#34;g&#34;:0.41568627953529358,&#34;b&#34;:0.73333334922790527,&#34;a&#34;:1.0},&#34;position&#34;:0.1250},{&#34;color&#34;:{&#34;r&#34;:0.055258467793464661,&#34;g&#34;:0.18894831836223602,&#34;b&#34;:0.33333334326744080,&#34;a&#34;:1.0},&#34;position&#34;:1.0}],&#34;transform&#34;:{&#34;m00&#34;:1.2491398161066508e-14,&#34;m01&#34;:-204.0,&#34;m02&#34;:204.0,&#34;m10&#34;:260.0,&#34;m11&#34;:1.5920409454184097e-14,&#34;m12&#34;:-1.5920409454184097e-14},&#34;opacity&#34;:1.0,&#34;blendMode&#34;:&#34;NORMAL&#34;,&#34;visible&#34;:true}"/>
<path fill-rule="evenodd" clip-rule="evenodd" d="M160.058 186.221L147.445 177.675C171.586 146.688 168.078 102.528 139.348 75.7408L150.454 65.3113C184.051 97.3186 188.18 149.311 160.058 186.221ZM122.299 91.7529L111.18 102.195C126.563 116.235 128.427 139.707 115.454 156L128.082 164.555C145.035 142.334 142.547 111.019 122.299 91.7529ZM89.9804 69.3033L52.9518 103.521L24.1286 105.81L28.9586 166.618L57.826 164.325L99.6975 191.64L89.9804 69.3033Z" fill="#FAFAFA"/>
<defs>
<clipPath id="paint0_angular_136_51_clip_path"><rect width="204" height="260"/></clipPath></defs>
</svg>
