<svg width="26" height="26" viewBox="0 0 26 26" fill="none" xmlns="http://www.w3.org/2000/svg">
<path d="M13 9.47917C12.0662 9.47917 11.1707 9.85012 10.5104 10.5104C9.8501 11.1707 9.47916 12.0662 9.47916 13C9.47916 13.9338 9.8501 14.8293 10.5104 15.4896C11.1707 16.1499 12.0662 16.5208 13 16.5208C13.9338 16.5208 14.8293 16.1499 15.4896 15.4896C16.1499 14.8293 16.5208 13.9338 16.5208 13C16.5208 12.0662 16.1499 11.1707 15.4896 10.5104C14.8293 9.85012 13.9338 9.47917 13 9.47917Z" fill="#FAFAFA"/>
<path fill-rule="evenodd" clip-rule="evenodd" d="M7.33417 3.33884C11.0999 2.92168 14.9001 2.92168 18.6658 3.33884C20.7231 3.56851 22.3817 5.18809 22.6233 7.25292C23.0695 11.0713 23.0695 14.9287 22.6233 18.7471C22.3817 20.8119 20.7231 22.4315 18.6669 22.6623C14.9009 23.0795 11.1002 23.0795 7.33417 22.6623C5.27692 22.4315 3.61834 20.8119 3.37676 18.7482C2.9304 14.9294 2.9304 11.0717 3.37676 7.25292C3.61834 5.18809 5.27692 3.56851 7.33417 3.33884ZM18.4167 6.50001C18.1294 6.50001 17.8538 6.61414 17.6506 6.81731C17.4475 7.02047 17.3333 7.29602 17.3333 7.58334C17.3333 7.87066 17.4475 8.14621 17.6506 8.34937C17.8538 8.55254 18.1294 8.66667 18.4167 8.66667C18.704 8.66667 18.9795 8.55254 19.1827 8.34937C19.3859 8.14621 19.5 7.87066 19.5 7.58334C19.5 7.29602 19.3859 7.02047 19.1827 6.81731C18.9795 6.61414 18.704 6.50001 18.4167 6.50001ZM7.85417 13C7.85417 11.6352 8.39632 10.3264 9.36135 9.36135C10.3264 8.39632 11.6352 7.85417 13 7.85417C14.3648 7.85417 15.6736 8.39632 16.6387 9.36135C17.6037 10.3264 18.1458 11.6352 18.1458 13C18.1458 14.3648 17.6037 15.6736 16.6387 16.6387C15.6736 17.6037 14.3648 18.1458 13 18.1458C11.6352 18.1458 10.3264 17.6037 9.36135 16.6387C8.39632 15.6736 7.85417 14.3648 7.85417 13Z" fill="#FAFAFA"/>
</svg>
