<svg width="26" height="26" viewBox="0 0 26 26" fill="none" xmlns="http://www.w3.org/2000/svg">
<path d="M19.3917 11.8084C15.925 9.75008 10.1292 9.53341 6.825 10.5626C6.28333 10.7251 5.74166 10.4001 5.57916 9.91258C5.41666 9.37091 5.74166 8.82925 6.22916 8.66675C10.075 7.52925 16.4125 7.74592 20.4208 10.1292C20.9083 10.4001 21.0708 11.0501 20.8 11.5376C20.5292 11.9167 19.8792 12.0792 19.3917 11.8084ZM19.2833 14.8417C19.0125 15.2209 18.525 15.3834 18.1458 15.1126C15.2208 13.3251 10.7792 12.7834 7.36666 13.8667C6.93333 13.9751 6.44583 13.7584 6.3375 13.3251C6.22916 12.8917 6.44583 12.4042 6.87916 12.2959C10.8333 11.1042 15.7083 11.7001 19.0667 13.7584C19.3917 13.9209 19.5542 14.4626 19.2833 14.8417ZM17.9833 17.8209C17.7667 18.1459 17.3875 18.2542 17.0625 18.0376C14.5167 16.4667 11.3208 16.1417 7.52916 17.0084C7.15 17.1167 6.825 16.8459 6.71666 16.5209C6.60833 16.1417 6.87916 15.8167 7.20416 15.7084C11.3208 14.7876 14.8958 15.1667 17.7125 16.9001C18.0917 17.0626 18.1458 17.4959 17.9833 17.8209ZM13 2.16675C11.5773 2.16675 10.1686 2.44696 8.85426 2.99139C7.5399 3.53581 6.34564 4.33379 5.33967 5.33976C3.30803 7.3714 2.16666 10.1269 2.16666 13.0001C2.16666 15.8733 3.30803 18.6288 5.33967 20.6604C6.34564 21.6664 7.5399 22.4644 8.85426 23.0088C10.1686 23.5532 11.5773 23.8334 13 23.8334C15.8732 23.8334 18.6287 22.692 20.6603 20.6604C22.692 18.6288 23.8333 15.8733 23.8333 13.0001C23.8333 11.5774 23.5531 10.1687 23.0087 8.85434C22.4643 7.53998 21.6663 6.34573 20.6603 5.33976C19.6544 4.33379 18.4601 3.53581 17.1457 2.99139C15.8314 2.44696 14.4227 2.16675 13 2.16675Z" fill="white"/>
</svg>
