<svg width="26" height="26" viewBox="0 0 26 26" fill="none" xmlns="http://www.w3.org/2000/svg">
<path d="M13 2.16675C10.8574 2.16675 8.76286 2.80211 6.98132 3.99249C5.19979 5.18288 3.81126 6.87481 2.99131 8.85434C2.17136 10.8339 1.95682 13.0121 2.37483 15.1136C2.79284 17.215 3.82461 19.1453 5.33968 20.6604C6.85475 22.1755 8.78506 23.2073 10.8865 23.6253C12.988 24.0433 15.1662 23.8287 17.1457 23.0088C19.1253 22.1888 20.8172 20.8003 22.0076 19.0188C23.198 17.2372 23.8333 15.1427 23.8333 13.0001C23.8305 10.1278 22.6882 7.37395 20.6572 5.34293C18.6261 3.3119 15.8723 2.16962 13 2.16675ZM19.4339 10.5225V11.2223C19.4339 11.2759 19.4232 11.3289 19.4024 11.3783C19.3816 11.4276 19.3511 11.4723 19.3127 11.5097C19.2743 11.547 19.2289 11.5763 19.179 11.5958C19.1291 11.6153 19.0758 11.6246 19.0223 11.6232C17.8784 11.5424 16.7841 11.1247 15.8773 10.4228V15.5448C15.8771 16.1117 15.7639 16.6729 15.5444 17.1955C15.3249 17.7182 15.0036 18.1919 14.599 18.589C14.1911 18.9965 13.7061 19.3185 13.1722 19.5361C12.6383 19.7538 12.0663 19.8627 11.4898 19.8565C10.3305 19.8548 9.21782 19.3999 8.38934 18.589C7.86218 18.0575 7.48247 17.3979 7.28758 16.6752C7.09269 15.9524 7.08933 15.1914 7.27784 14.4669C7.45009 13.7714 7.79784 13.1322 8.28859 12.6112C8.65457 12.1638 9.1159 11.804 9.63885 11.5579C10.1618 11.3118 10.7331 11.1856 11.3111 11.1887H12.1994V13.0337C12.1998 13.0872 12.1888 13.1403 12.1671 13.1893C12.1453 13.2383 12.1134 13.282 12.0734 13.3177C12.0335 13.3534 11.9863 13.3801 11.9352 13.3962C11.8841 13.4122 11.8301 13.4171 11.7769 13.4107C11.2611 13.2557 10.7053 13.3071 10.2267 13.554C9.74807 13.8009 9.38399 14.2239 9.2112 14.734C9.03841 15.2441 9.07042 15.8013 9.30047 16.2883C9.53053 16.7752 9.94066 17.1538 10.4444 17.3442C10.7369 17.5122 11.0641 17.6107 11.3999 17.6335C11.6599 17.6443 11.9199 17.6118 12.1669 17.5338C12.5793 17.3947 12.9379 17.1304 13.1929 16.7778C13.4479 16.4251 13.5865 16.0017 13.5893 15.5665V6.23358C13.5893 6.13033 13.6303 6.0313 13.7032 5.95819C13.7761 5.88508 13.875 5.84387 13.9783 5.84358H15.5112C15.6108 5.8437 15.7065 5.88193 15.7789 5.95042C15.8512 6.01891 15.8946 6.11247 15.9001 6.21192C15.956 6.68991 16.1078 7.15171 16.3464 7.56962C16.5851 7.98753 16.9056 8.35296 17.2889 8.644C17.8069 9.0328 18.422 9.2712 19.0667 9.333C19.1632 9.34126 19.2535 9.38422 19.3208 9.45393C19.3882 9.52364 19.428 9.61538 19.4328 9.71217L19.4339 10.5225Z" fill="white"/>
</svg>
