<svg width="60" height="60" viewBox="0 0 60 60" fill="none" xmlns="http://www.w3.org/2000/svg">
<path fill-rule="evenodd" clip-rule="evenodd" d="M30 3.125C44.8425 3.125 56.875 15.1575 56.875 30C56.875 44.8425 44.8425 56.875 30 56.875C15.1575 56.875 3.12497 44.8425 3.12497 30C3.12497 15.1575 15.1575 3.125 30 3.125ZM40.075 31.175L31.325 22.425C30.9734 22.0739 30.4968 21.8767 30 21.8767C29.5031 21.8767 29.0265 22.0739 28.675 22.425L19.925 31.175C19.7408 31.3467 19.593 31.5537 19.4905 31.7837C19.388 32.0137 19.3329 32.2619 19.3285 32.5137C19.3241 32.7655 19.3704 33.0155 19.4647 33.249C19.559 33.4825 19.6993 33.6946 19.8774 33.8726C20.0554 34.0506 20.2675 34.191 20.501 34.2853C20.7344 34.3796 20.9845 34.4259 21.2363 34.4215C21.488 34.417 21.7363 34.3619 21.9663 34.2595C22.1963 34.157 22.4033 34.0092 22.575 33.825L30 26.4L37.425 33.825C37.5966 34.0092 37.8036 34.157 38.0336 34.2595C38.2636 34.3619 38.5119 34.417 38.7637 34.4215C39.0154 34.4259 39.2655 34.3796 39.499 34.2853C39.7324 34.191 39.9445 34.0506 40.1226 33.8726C40.3006 33.6946 40.441 33.4825 40.5353 33.249C40.6296 33.0155 40.6759 32.7655 40.6715 32.5137C40.667 32.2619 40.6119 32.0137 40.5094 31.7837C40.4069 31.5537 40.2592 31.3467 40.075 31.175Z" fill="#FAFAFA"/>
</svg>
