<svg width="26" height="26" viewBox="0 0 26 26" fill="none" xmlns="http://www.w3.org/2000/svg">
<path d="M10.8334 16.25L16.4559 13L10.8334 9.75001V16.25ZM23.3567 7.76751C23.4975 8.27667 23.595 8.95917 23.66 9.82584C23.7359 10.6925 23.7684 11.44 23.7684 12.09L23.8334 13C23.8334 15.3725 23.66 17.1167 23.3567 18.2325C23.0859 19.2075 22.4575 19.8358 21.4825 20.1067C20.9734 20.2475 20.0417 20.345 18.6117 20.41C17.2034 20.4858 15.9142 20.5183 14.7225 20.5183L13 20.5833C8.46085 20.5833 5.63335 20.41 4.51752 20.1067C3.54252 19.8358 2.91419 19.2075 2.64335 18.2325C2.50252 17.7233 2.40502 17.0408 2.34002 16.1742C2.26419 15.3075 2.23169 14.56 2.23169 13.91L2.16669 13C2.16669 10.6275 2.34002 8.88334 2.64335 7.76751C2.91419 6.79251 3.54252 6.16417 4.51752 5.89334C5.02669 5.75251 5.95835 5.655 7.38835 5.59C8.79669 5.51417 10.0859 5.48167 11.2775 5.48167L13 5.41667C17.5392 5.41667 20.3667 5.59001 21.4825 5.89334C22.4575 6.16417 23.0859 6.79251 23.3567 7.76751Z" fill="#FAFAFA"/>
</svg>
